<?xml version="1.0" standalone="no"?>
<!DOCTYPE svg PUBLIC "-//W3C//DTD SVG 20010904//EN"
 "http://www.w3.org/TR/2001/REC-SVG-20010904/DTD/svg10.dtd">
<svg version="1.0" xmlns="http://www.w3.org/2000/svg"
 width="116.000000pt" height="116.000000pt" viewBox="0 0 116.000000 116.000000"
 preserveAspectRatio="xMidYMid meet">
<metadata>
Created by potrace 1.11, written by Peter Selinger 2001-2013
</metadata>
<g transform="translate(0.000000,116.000000) scale(0.100000,-0.100000)"
fill="#000000" stroke="none">
<path d="M20 608 l0 -173 170 0 170 0 0 173 0 172 -170 0 -170 0 0 -172z m157
55 c11 -37 18 -51 21 -38 17 91 20 95 67 95 l45 0 0 -105 0 -105 -30 0 c-30 0
-30 0 -31 58 l-1 57 -15 -57 c-14 -53 -18 -58 -42 -58 -25 0 -29 5 -43 63
l-16 62 -1 -62 -1 -63 -30 0 -30 0 0 105 0 105 45 0 44 0 18 -57z"/>
<path d="M400 612 c0 -93 2 -171 4 -173 2 -2 81 -3 175 -1 l171 3 0 169 0 170
-175 0 -175 0 0 -168z m258 82 c12 -14 20 -30 17 -35 -8 -12 -65 -12 -65 1 0
6 -11 10 -25 10 -18 0 -29 -8 -37 -25 -26 -57 31 -113 65 -65 12 17 19 19 41
11 32 -13 33 -22 3 -56 -18 -21 -32 -27 -67 -27 -59 -1 -88 15 -107 59 -17 42
-10 104 15 127 47 42 122 42 160 0z"/>
<path d="M790 612 c0 -93 2 -171 4 -173 2 -2 81 -3 175 -1 l171 3 0 169 0 170
-175 0 -175 0 0 -168z m252 78 c39 -48 7 -110 -56 -110 -33 0 -35 -2 -38 -37
-3 -35 -6 -38 -35 -41 l-33 -3 0 104 c0 57 3 107 8 111 4 5 36 6 72 3 50 -4
68 -10 82 -27z"/>
<path d="M950 647 c0 -20 4 -24 20 -20 25 7 23 36 -3 41 -12 3 -17 -3 -17 -21z"/>
<path d="M0 390 l0 -30 580 0 580 0 0 30 0 30 -580 0 -580 0 0 -30z"/>
</g>
</svg>
